# AST/ASF file generated using VICON BodyLanguage
# -----------------------------------------------
:version 1.10
:name VICON
:units
  mass 1.0
  length 0.45
  angle deg
:documentation
   .ast/.asf automatically generated from VICON data using
   VICON BodyBuilder and BodyLanguage model FoxedUp or BRILLIANT.MOD
:root
   order TX TY TZ RX RY RZ
   axis XYZ
   position 0 0 0  
   orientation 0 0 0 
:bonedata
  begin
     id 1 
     name lhipjoint
     direction 0.621036 -0.695554 0.361275 
     length 2.46325 
     axis 0 0 0  XYZ
  end
  begin
     id 2 
     name lfemur
     direction 0.34202 -0.939693 0  
     length 6.54784  
     axis 0 0 20  XYZ
    dof rx ry rz
    limits (-160.0 20.0)
           (-70.0 70.0)
           (-60.0 70.0)
  end
  begin
     id 3 
     name ltibia
     direction 0.34202 -0.939693 0   
     length 7.84737   
     axis 0 0 20   XYZ
    dof rx
    limits (-10.0 170.0)
  end
  begin
     id 4 
     name lfoot
     direction 0.0790693 -0.217241 0.97291   
     length 2.59747   
     axis -90 7.62852e-016 20   XYZ
    dof rx rz
    limits (-45.0 90.0)
           (-70.0 20.0)
  end
  begin
     id 5 
     name ltoes
     direction 1.53572e-011 -4.21898e-011 1   
     length 1.29919   
     axis -90 7.62852e-016 20   XYZ
    dof rx
    limits (-90.0 20.0)
  end
  begin
     id 6 
     name rhipjoint
     direction -0.602353 -0.708375 0.367935   
     length 2.41867  
     axis 0 0 0  XYZ 
  end
  begin
     id 7 
     name rfemur
     direction -0.34202 -0.939693 0   
     length 6.92065   
     axis 0 0 -20   XYZ
    dof rx ry rz
    limits (-160.0 20.0)
           (-70.0 70.0)
           (-70.0 60.0)
  end
  begin
     id 8 
     name rtibia
     direction -0.34202 -0.939693 0   
     length 7.88883   
     axis 0 0 -20   XYZ
    dof rx
    limits (-10.0 170.0)
 end
 begin
     id 9 
     name rfoot
     direction -0.0768692 -0.211196 0.974416   
     length 2.43714  
     axis -90 -7.62852e-016 -20   XYZ
    dof rx rz
    limits (-45.0 90.0)
           (-20.0 70.0)
  end
  begin
     id 10 
     name rtoes
     direction -1.53575e-011 -4.21933e-011 1   
     length 1.22113   
     axis -90 -7.62852e-016 -20   XYZ
    dof rx
    limits (-90.0 20.0)
  end
  begin
     id 11 
     name lowerback
     direction 0.0197937 0.98943 -0.143655   
     length 2.16931   
     axis 0 0 0   XYZ
    dof rx ry rz
    limits (-20.0 45.0)
           (-30.0 30.0)
           (-30.0 30.0)
  end
  begin
     id 12 
     name upperback
     direction -0.00183968 0.999975 0.00684288   
     length 2.17221   
     axis 0 0 0   XYZ
    dof rx ry rz
    limits (-20.0 45.0)
           (-30.0 30.0)
           (-30.0 30.0)
  end
  begin
     id 13 
     name thorax
     direction -0.00950244 0.997208 0.0740685   
     length 2.22549   
     axis 0 0 0   XYZ
    dof rx ry rz
    limits (-20.0 45.0)
           (-30.0 30.0)
           (-30.0 30.0)
  end
  begin
     id 14 
     name lowerneck
     direction 0.0218238 0.996215 0.0841425   
     length 1.77269   
     axis 0 0 0   XYZ
    dof rx ry rz
    limits (-20.0 45.0)
           (-30.0 30.0)
           (-30.0 30.0)
  end
  begin
     id 15 
     name upperneck
     direction -0.00430652 0.994214 -0.107332   
     length 1.76534   
     axis 0 0 0   XYZ
    dof rx ry rz
    limits (-20.0 45.0)
           (-30.0 30.0)
           (-30.0 30.0)
  end
  begin
     id 16
     name head
     direction -0.00328946 0.998959 -0.0454998  
     length 1.82634  
     axis 0 0 0   XYZ
    dof rx ry rz
    limits (-20.0 45.0)
           (-30.0 30.0)
           (-30.0 30.0)
  end
  begin
     id 17 
     name lclavicle
     direction 0.970962 0.239191 0.00450212  
     length 3.84872  
     axis 0 0 0   XYZ
    dof ry rz
    limits (-20.0 10.0)
           (0.0 20.0)
  end
  begin
     id 18 
     name lhumerus
     direction 1 -4.48966e-011 5.74696e-028   
     length 5.22771   
     axis 180 -30 -90   XYZ
    dof rx ry rz
    limits (-60.0 90.0)
           (-90.0 90.0)
           (-90.0 90.0)
  end
  begin
     id 19
     name lradius
     direction 1 -4.4896e-011 4.25109e-027   
     length 3.45251   
     axis 180 -30 -90   XYZ
    dof rx
    limits (-10.0 170.0)
  end
  begin
     id 20
     name lwrist
     direction 1 -4.48971e-011 1.15382e-027   
     length 1.72626   
     axis -5.52449e-016 90 90   XYZ
    dof ry
    limits (-180.0 0.0)
 end
  begin
     id 21 
     name lhand
     direction 1 -4.49034e-011 2.30765e-027   
     length 0.552119   
     axis -1.47248e-015 90 90   XYZ
    dof rx rz
    limits (-90.0 90.0)
           (-45.0 45.0)
  end
  begin
     id 22 
     name lfingers
     direction 1 -4.48951e-011 4.61529e-027   
     length 0.445133   
     axis -2.94495e-015 90 90   XYZ
    dof rx
    limits (0.0 90.0)
  end
  begin
     id 23
     name lthumb
     direction 0.707107 -6.34991e-011 0.707107   
     length 0.639124   
     axis -90 45 2.85299e-015   XYZ
    dof rx rz
    limits (-45.0 45.0)
           (-45.0 45.0)
  end
  begin
     id 24 
     name rclavicle
     direction -0.97424 0.222511 -0.0366699   
     length 3.73439  
     axis 0 0 0   XYZ 
    dof ry rz
    limits (-10.0 20.0)
           (-20.0 0.0)
  end
  begin
     id 25 
     name rhumerus
     direction -1 -4.48956e-011 -4.97258e-028  
     length 5.2398   
     axis 180 30 90   XYZ
    dof rx ry rz
    limits (-90.0 60.0)
           (-90.0 90.0)
           (-90.0 90.0)
  end
  begin
     id 26 
     name rradius
     direction -1 -4.4897e-011 -1.72611e-027   
     length 3.48042   
     axis 180 30 90   XYZ
    dof rx
    limits (-10.0 170.0)
  end
  begin
     id 27 
     name rwrist
     direction -1 -4.48976e-011 1.15382e-027   
     length 1.74021   
     axis -5.52449e-016 -90 -90   XYZ
    dof ry
    limits (-180.0 0.0)
  end
  begin
     id 28
     name rhand
     direction -1 -4.48963e-011 2.30765e-027   
     length 0.618713   
     axis -1.47248e-015 -90 -90   XYZ
    dof rx rz
    limits (-90.0 90.0)
           (-45.0 45.0)
  end
  begin
     id 29
     name rfingers
     direction -1 -4.4888e-011 4.61529e-027   
     length 0.498823   
     axis -2.94495e-015 -90 -90   XYZ
    dof rx
    limits (0.0 90.0)
  end
  begin
     id 30
     name rthumb
     direction -0.707107 -6.34968e-011 0.707107   
     length 0.716213   
     axis -90 -45 -2.85299e-015   XYZ
    dof rx rz
    limits (-45.0 45.0)
           (-45.0 45.0)
  end
:hierarchy
  begin
    root lhipjoint rhipjoint lowerback
    lhipjoint lfemur
    lfemur ltibia
    ltibia lfoot
    lfoot ltoes
    rhipjoint rfemur
    rfemur rtibia
    rtibia rfoot
    rfoot rtoes
    lowerback upperback
    upperback thorax
    thorax lowerneck lclavicle rclavicle
    lowerneck upperneck
    upperneck head
    lclavicle lhumerus
    lhumerus lradius
    lradius lwrist
    lwrist lhand lthumb
    lhand lfingers
    rclavicle rhumerus
    rhumerus rradius
    rradius rwrist
    rwrist rhand rthumb
    rhand rfingers
  end

#!OML:ASF G:\JayActor3\Patient Classification 1\Patient 1\Session 5\male.ASF
:FULLY-SPECIFIED
:DEGREES
226
root -38.0703 16.9108 -20.5683 2.68933 46.0153 -7.14623
lowerback 2.14606 -1.19885 3.25764
upperback 0.653958 -1.5197 0.579224
thorax -0.601163 -0.759017 -1.19043
lowerneck -5.64528 0.0322851 1.71394
upperneck 6.46605 -0.228695 1.82334
head 3.05719 0.00235666 0.282327
rclavicle -4.64162e-014 1.98785e-015
rhumerus -32.397 -10.029 -86.99
rradius 21.7275
rwrist 8.98227
rhand -18.4088 -6.71918
rfingers 7.12502
rthumb 7.87578 -36.5525
lclavicle -4.64162e-014 1.98785e-015
lhumerus -29.8767 30.2046 74.7546
lradius 10.0499
lwrist -5.05064
lhand -20.5626 16.7867
lfingers 7.12502
lthumb 5.79665 46.6874
rfemur -12.9763 2.57299 29.0072
rtibia 34.589
rfoot -24.2539 -19.3077
rtoes -20.3474
lfemur 2.68872 7.28761 -18.1679
ltibia 8.01256
lfoot -20.1038 -0.0710053
ltoes -0.46845
227
root -38.044 16.9085 -20.5444 2.8323 45.8939 -7.04903
lowerback 2.20175 -1.18821 3.15917
upperback 0.648727 -1.50566 0.549706
thorax -0.635383 -0.752564 -1.16473
lowerneck -5.62642 0.0555168 1.74293
upperneck 6.39981 -0.197708 1.81437
head 3.03086 0.017103 0.275505
rclavicle 1.15295e-014 3.57812e-015
rhumerus -32.3721 -10.0853 -86.9794
rradius 21.6938
rwrist 9.01515
rhand -18.3968 -6.70228
rfingers 7.12502
rthumb 7.8874 -36.5351
lclavicle 1.15295e-014 3.57812e-015
lhumerus -29.8594 30.2896 74.6913
lradius 9.97375
lwrist -5.12833
lhand -20.5902 16.807
lfingers 7.12502
lthumb 5.77005 46.7085
rfemur -13.4384 2.4232 28.9747
rtibia 35.3462
rfoot -23.9297 -19.478
rtoes -21.6037
lfemur 3.45247 7.38502 -18.2351
ltibia 6.75126
lfoot -19.8151 -0.00393751
ltoes -0.742484
228
root -38.0169 16.9061 -20.5197 2.98735 45.762 -6.93727
lowerback 2.26127 -1.1783 3.04908
upperback 0.64293 -1.4929 0.516199
thorax -0.672226 -0.746754 -1.13652
lowerneck -5.60763 0.0827368 1.77555
upperneck 6.33027 -0.16154 1.8043
head 3.00346 0.0344185 0.267903
rclavicle -1.22253e-014 1.07344e-014
rhumerus -32.3454 -10.1473 -86.968
rradius 21.6581
rwrist 9.04926
rhand -18.3843 -6.68635
rfingers 7.12502
rthumb 7.89943 -36.5188
lclavicle -1.22253e-014 1.07344e-014
lhumerus -29.8332 30.3872 74.6247
lradius 9.87952
lwrist -5.22359
lhand -20.6292 16.8302
lfingers 7.12502
lthumb 5.73232 46.7327
rfemur -13.9469 2.28699 28.9327
rtibia 36.1707
rfoot -23.5743 -19.6639
rtoes -22.9049
lfemur 4.44201 7.49197 -18.3155
ltibia 5.07908
lfoot -19.3497 0.0641953
ltoes -1.05239
229
root -37.9892 16.9035 -20.4941 3.15419 45.6191 -6.81085
lowerback 2.32511 -1.16892 2.92749
upperback 0.636301 -1.48117 0.478304
thorax -0.712233 -0.741466 -1.10623
lowerneck -5.58544 0.113086 1.81099
upperneck 6.2559 -0.121205 1.79401
head 2.97381 0.0537763 0.259894
rclavicle -7.89175e-014 -3.97569e-015
rhumerus -32.3195 -10.2137 -86.9564
rradius 21.6227
rwrist 9.0811
rhand -18.3718 -6.67086
rfingers 7.12502
rthumb 7.91147 -36.5028
lclavicle -7.89175e-014 -3.97569e-015
lhumerus -29.7996 30.4967 74.5541
lradius 9.76934
lwrist -5.33508
lhand -20.68 16.8564
lfingers 7.12502
lthumb 5.68329 46.7602
rfemur -14.5008 2.16829 28.8807
rtibia 37.0594
rfoot -23.1855 -19.869
rtoes -24.2388
lfemur 6.05499 7.60877 -18.4141
ltibia 2.26687
lfoot -18.3746 0.12435
ltoes -1.39769
230
root -37.9608 16.9005 -20.4676 3.32882 45.4652 -6.67488
lowerback 2.39279 -1.16038 2.79736
upperback 0.62963 -1.47088 0.437398
thorax -0.754389 -0.736862 -1.07415
lowerneck -5.56504 0.147601 1.85025
upperneck 6.17963 -0.0755094 1.78221
head 2.94392 0.0758071 0.250948
rclavicle -1.68967e-014 3.97569e-015
rhumerus -32.292 -10.2877 -86.9428
rradius 21.5845
rwrist 9.11367
rhand -18.3599 -6.65382
rfingers 7.12502
rthumb 7.92294 -36.4853
lclavicle -1.68967e-014 3.97569e-015
lhumerus -29.7555 30.6199 74.4814
lradius 9.64089
lwrist -5.46449
lhand -20.7448 16.8818
lfingers 7.12502
lthumb 5.62076 46.7873
rfemur -15.099 2.06959 28.8228
rtibia 38.0091
rfoot -22.7612 -20.0964
rtoes -25.598
lfemur 7.37359 7.73572 -18.5221
ltibia 5.725e-014
lfoot -17.6532 0.190381
ltoes -1.779
231
root -37.9315 16.8969 -20.4401 3.51182 45.3014 -6.52838
lowerback 2.46443 -1.15334 2.65782
upperback 0.621891 -1.46294 0.393757
thorax -0.799809 -0.733412 -1.03942
lowerneck -5.5434 0.186022 1.89205
upperneck 6.1004 -0.0246129 1.76929
head 2.91285 0.100385 0.241399
rclavicle 7.60351e-014 -5.56597e-015
rhumerus -32.2666 -10.3652 -86.9275
rradius 21.5459
rwrist 9.14465
rhand -18.3484 -6.63715
rfingers 7.12502
rthumb 7.9341 -36.4683
lclavicle 7.60351e-014 -5.56597e-015
lhumerus -29.702 30.7575 74.4052
lradius 9.49296
lwrist -5.611
lhand -20.824 16.9059
lfingers 7.12502
lthumb 5.54428 46.8133
rfemur -15.7395 1.98975 28.7565
rtibia 39.0146
rfoot -22.3061 -20.3402
rtoes -26.9639
lfemur 7.4614 7.87203 -18.6295
ltibia -3.49861e-014
lfoot -17.9676 0.285811
ltoes -2.1935
232
root -37.9016 16.8926 -20.4117 3.70391 45.1289 -6.37185
lowerback 2.5379 -1.14776 2.50967
upperback 0.61337 -1.45741 0.346837
thorax -0.847031 -0.731117 -1.00312
lowerneck -5.51818 0.228057 1.93776
upperneck 6.01613 0.0311166 1.75493
head 2.87948 0.127309 0.230871
rclavicle -7.10655e-014 -3.57812e-015
rhumerus -32.2424 -10.4487 -86.9104
rradius 21.5059
rwrist 9.17547
rhand -18.3368 -6.61821
rfingers 7.12502
rthumb 7.9453 -36.4489
lclavicle -7.10655e-014 -3.57812e-015
lhumerus -29.6391 30.9084 74.3268
lradius 9.32771
lwrist -5.77316
lhand -20.9172 16.9263
lfingers 7.12502
lthumb 5.45429 46.8361
rfemur -16.4223 1.93724 28.6844
rtibia 40.0702
rfoot -21.8118 -20.6146
rtoes -28.3343
lfemur 7.5517 8.01591 -18.7452
ltibia 1.27222e-014
lfoot -18.2859 0.386968
ltoes -2.63402
